# xmcd
#
# Track frame offsets:
# 150
# 22939
# 43413
# 63809
# 81922
# 95425
# 112361
# 133154
# 148807
#
# Disc length: 2288 seconds
#
#
# Revision: 0
# Processed by: cddbd v1.5.2PL0 Copyright (c) Steve Scherf et al.
# Submitted via: FreeRIP 2.51 
#
DISCID=8308ee09
DTITLE=Ian Thomas - Live at Rockwood Music Hall
DYEAR=2005
DGENRE=Blues
TTITLE0=A Young Man's Blues
TTITLE1=Open Letter to a Lover
TTITLE2=Lonesome Blue Ocean
TTITLE3=Halfway Gone
TTITLE4=You Got to Change Your Mind
TTITLE5=Poor Children
TTITLE6=In the Morning
TTITLE7=Honey Can I Count on You
TTITLE8=Ain't Gonna Dredge
EXTD=Played with Boss Hawg on 1-24-08 at Boone Saloon\n646-284-7118
EXTT0=
EXTT1=
EXTT2=
EXTT3=
EXTT4=
EXTT5=
EXTT6=
EXTT7=
EXTT8=
PLAYORDER=
